<svg xmlns="http://www.w3.org/2000/svg" width="1024" height="1024" viewBox="0 0 1024 1024">
  <g transform="translate(512,512) scale(26)">
    <path transform="translate(-12,-12.2)" fill="#FFFFFF"
          d="M12 21.35l-1.45-1.32C5.4 15.36 2 12.28 2 8.5 2 5.42 4.42 3 7.5 3c1.74 0 3.41.81 4.5 2.09C13.09 3.81 14.76 3 16.5 3 19.58 3 22 5.42 22 8.5c0 3.78-3.4 6.86-8.55 11.54L12 21.35z"/>
    <path d="M -2.333 1.278 L 2.333 -3.5 L 0 -5.833 L 0 3.611 L 2.333 1.278 L -2.333 -3.5"
          fill="none" stroke="#E62249" stroke-width="1.333" stroke-linecap="round" stroke-linejoin="round"/>
  </g>
</svg>
